<?xml version="1.0" encoding="utf-8"?>
<!-- Generator: Adobe Illustrator 27.5.0, SVG Export Plug-In . SVG Version: 6.00 Build 0)  -->
<svg version="1.1" id="_x3C_Layer_x3E_" xmlns="http://www.w3.org/2000/svg" xmlns:xlink="http://www.w3.org/1999/xlink" x="0px"
	 y="0px" viewBox="0 0 3000 2000" style="enable-background:new 0 0 3000 2000;" xml:space="preserve">
<rect style="fill:#FFFFFF;" width="3000" height="2000"/>
<g>
	<defs>
		<path id="SVGID_1_" d="M2479.898,1774.353c-71.386,22.862-158.338,29.055-227.399,24.29c0,0-1269.708,122.314-1728.672-3.088
			c-339.681-92.81-298.674-423.214-194.721-634.694c105.138-213.89-170.849-627.333,272.798-867.076
			c255.179-137.896,484.054,82.774,925.196-80.135c398.277-147.079,912.033-15.523,1037.666,292.944
			c86.425,212.201-22.526,440.946,86.425,551.818C2827.894,1238.233,2746.64,1688.929,2479.898,1774.353z"/>
	</defs>
	<clipPath id="SVGID_00000122680243303486172990000005684746348320680110_">
		<use xlink:href="#SVGID_1_"  style="overflow:visible;"/>
	</clipPath>
	<g style="clip-path:url(#SVGID_00000122680243303486172990000005684746348320680110_);">
		<g>
			<path style="fill:#DAE6FF;" d="M2479.898,1774.353c-71.386,22.862-158.338,29.055-227.399,24.29
				c0,0-1269.708,122.314-1728.672-3.088c-339.681-92.81-298.674-423.214-194.721-634.694
				c105.138-213.89-170.849-627.333,272.798-867.076c255.179-137.896,484.054,82.774,925.196-80.135
				c398.277-147.079,912.033-15.523,1037.666,292.944c86.425,212.201-22.526,440.946,86.425,551.818
				C2827.894,1238.233,2746.64,1688.929,2479.898,1774.353z"/>
		</g>
	</g>
	<g style="clip-path:url(#SVGID_00000122680243303486172990000005684746348320680110_);">
		<path style="fill:#BBCFF8;" d="M1308.937,1842.754c-0.095,0.002-0.192-0.006-0.291-0.024c-0.788-0.146-1.308-0.904-1.161-1.692
			c38.229-205.87,77.437-352.544,110.399-413.005c0.732-1.342,1.261-2.311,1.449-2.794c0.294-0.747,1.138-1.112,1.882-0.821
			c0.746,0.294,1.114,1.136,0.82,1.882c-0.256,0.651-0.763,1.581-1.603,3.122c-32.819,60.199-71.918,206.569-110.094,412.146
			C1310.21,1842.257,1309.613,1842.742,1308.937,1842.754z"/>
		<path style="fill:#BBCFF8;" d="M1444.021,1414.812c-3.942,6.812-25.982,20.928-27.926,19.802
			c-1.945-1.125-0.685-27.267,3.258-34.079c3.942-6.812,12.66-9.138,19.472-5.196
			C1445.637,1399.281,1447.964,1408,1444.021,1414.812z"/>
		<path style="fill:#BBCFF8;" d="M1401.12,1438.889c3.138,7.415,1.098,34.113-1.02,35.008c-2.116,0.896-22.697-16.231-25.834-23.647
			c-3.138-7.416,0.331-15.97,7.746-19.108C1389.428,1428.005,1397.983,1431.473,1401.12,1438.889z"/>
		<path style="fill:#BBCFF8;" d="M1433.882,1481.622c-7.931,1.387-33.484-6.612-33.88-8.876
			c-0.396-2.264,20.926-18.459,28.857-19.847c7.932-1.387,15.486,3.919,16.874,11.85
			C1447.119,1472.681,1441.814,1480.235,1433.882,1481.622z"/>
		<path style="fill:#BBCFF8;" d="M1347.056,1578.465c6.578,11.808,8.003,56.728,4.633,58.605c-3.37,1.878-40.813-22.98-47.39-34.787
			c-6.577-11.807-2.337-26.711,9.47-33.288C1325.575,1562.418,1340.479,1566.658,1347.056,1578.465z"/>
		<path style="fill:#BBCFF8;" d="M1409.458,1643.85c-12.985,3.75-57.072-4.977-58.142-8.683c-1.071-3.706,31.58-34.59,44.565-38.339
			c12.985-3.75,26.551,3.738,30.3,16.722C1429.93,1626.535,1422.443,1640.101,1409.458,1643.85z"/>
		<path style="fill:#BBCFF8;" d="M1317.554,1632.118c11.031,12.323,24.833,65.561,21.316,68.711
			c-3.518,3.148-54.909-16.439-65.941-28.762c-11.032-12.323-9.985-31.255,2.339-42.287
			C1287.589,1618.748,1306.522,1619.795,1317.554,1632.118z"/>
		<path style="fill:#BBCFF8;" d="M1405.851,1716.975c-16.278,2.929-68.845-13.243-69.68-17.89
			c-0.836-4.646,42.796-38.128,59.074-41.057c16.277-2.929,31.848,7.892,34.777,24.17
			C1432.95,1698.475,1422.129,1714.046,1405.851,1716.975z"/>
		<path style="fill:#BBCFF8;" d="M1303.012,1699.476c11.032,12.324,24.833,65.562,21.317,68.711
			c-3.518,3.148-54.91-16.439-65.941-28.762c-11.032-12.323-9.984-31.255,2.339-42.286
			C1273.049,1686.106,1291.981,1687.153,1303.012,1699.476z"/>
		<path style="fill:#BBCFF8;" d="M1391.311,1784.333c-16.278,2.929-68.845-13.244-69.681-17.89
			c-0.836-4.646,42.796-38.128,59.074-41.057c16.278-2.929,31.848,7.893,34.777,24.171
			C1418.41,1765.834,1407.588,1781.404,1391.311,1784.333z"/>
		<path style="fill:#BBCFF8;" d="M1264.51,1786.322c14.894,7.193,47.934,51.161,45.881,55.412
			c-2.052,4.251-57.032,5.716-71.925-1.477c-14.894-7.192-21.137-25.097-13.946-39.99
			C1231.713,1785.373,1249.616,1779.13,1264.51,1786.322z"/>
		<path style="fill:#BBCFF8;" d="M1379.189,1850.711c-15.784,4.941-69.96-4.533-71.371-9.038
			c-1.41-4.505,37.694-43.179,53.478-48.12c15.784-4.941,32.585,3.85,37.526,19.633
			C1403.762,1828.97,1394.973,1845.77,1379.189,1850.711z"/>
		<path style="fill:#BBCFF8;" d="M1384.488,1482.325c3.188,7.534,1.115,34.66-1.035,35.57c-2.151,0.91-23.062-16.492-26.249-24.026
			c-3.188-7.534,0.336-16.226,7.87-19.414C1372.608,1471.267,1381.3,1474.791,1384.488,1482.325z"/>
		<path style="fill:#BBCFF8;" d="M1416.776,1526.353c-8.058,1.408-34.02-6.719-34.423-9.019c-0.402-2.3,21.261-18.756,29.32-20.165
			c8.058-1.409,15.734,3.982,17.143,12.04C1430.225,1517.269,1424.834,1524.944,1416.776,1526.353z"/>
		<path style="fill:#BBCFF8;" d="M1364.549,1523.153c5.391,10.296,5.618,48.945,2.679,50.484
			c-2.939,1.539-34.575-20.663-39.966-30.96c-5.391-10.297-1.415-23.015,8.882-28.406
			C1346.44,1508.88,1359.158,1512.856,1364.549,1523.153z"/>
		<path style="fill:#BBCFF8;" d="M1415.654,1585.182c-11.449,2.001-48.333-9.545-48.904-12.813
			c-0.572-3.268,30.206-26.646,41.655-28.647c11.449-2.002,22.353,5.656,24.355,17.105
			C1434.761,1572.276,1427.103,1583.181,1415.654,1585.182z"/>
	</g>
	<g style="clip-path:url(#SVGID_00000122680243303486172990000005684746348320680110_);">
		<path style="fill:#BBCFF8;" d="M942.838,1931.326c0.172,0.017,0.347,0.018,0.527,0c1.439-0.144,2.49-1.426,2.345-2.866
			c-37.541-376.052-85.818-645.789-135.932-759.525c-1.114-2.525-1.917-4.349-2.183-5.245c-0.416-1.388-1.878-2.171-3.26-1.762
			c-1.387,0.416-2.175,1.874-1.76,3.261c0.362,1.209,1.133,2.96,2.41,5.858c49.897,113.243,98.025,382.417,135.515,757.933
			C940.624,1930.24,941.624,1931.203,942.838,1931.326z"/>
		<path style="fill:#BBCFF8;" d="M764.775,1141.194c6.057,12.849,43.555,41.578,47.222,39.848
			c3.669-1.729,5.365-48.935-0.693-61.784c-6.056-12.849-21.383-18.354-34.232-12.297
			C764.223,1113.018,758.717,1128.346,764.775,1141.194z"/>
		<path style="fill:#BBCFF8;" d="M838.28,1191.001c-6.767,12.861-7.147,61.185-3.474,63.116c3.67,1.933,43.281-25.75,50.048-38.612
			c6.769-12.861,1.827-28.773-11.034-35.539C860.959,1173.2,845.048,1178.139,838.28,1191.001z"/>
		<path style="fill:#BBCFF8;" d="M772.88,1262.89c14.053,3.698,61.223-6.815,62.278-10.827c1.055-4.012-34.836-36.372-48.89-40.069
			c-14.055-3.697-28.446,4.7-32.144,18.754C750.428,1244.803,758.825,1259.193,772.88,1262.89z"/>
		<path style="fill:#BBCFF8;" d="M914.353,1450.226c-13.62,20.239-22.994,100.811-17.218,104.699s76.886-35.141,90.505-55.379
			c13.619-20.238,8.253-47.684-11.985-61.304C955.419,1424.622,927.972,1429.989,914.353,1450.226z"/>
		<path style="fill:#BBCFF8;" d="M792.21,1558.36c22.785,8.713,103.399-0.298,105.885-6.801c2.488-6.503-51.553-66.998-74.337-75.71
			c-22.785-8.713-48.319,2.696-57.03,25.48C758.015,1524.114,769.424,1549.648,792.21,1558.36z"/>
		<path style="fill:#BBCFF8;" d="M959.277,1551.193c-21.707,20.49-54.601,114.147-48.754,120.344
			c5.849,6.195,101.247-21.24,122.955-41.731c21.709-20.49,22.696-54.699,2.205-76.407
			C1015.195,1531.691,980.986,1530.702,959.277,1551.193z"/>
		<path style="fill:#BBCFF8;" d="M787.61,1690.42c28.831,7.736,125.825-13.38,128.032-21.61
			c2.208-8.228-71.188-75.062-100.019-82.797c-28.831-7.736-58.475,9.365-66.211,38.197
			C741.676,1653.039,758.779,1682.684,787.61,1690.42z"/>
		<path style="fill:#BBCFF8;" d="M975.217,1674.541c-21.71,20.492-54.603,114.147-48.756,120.344
			c5.849,6.196,101.248-21.241,122.956-41.731c21.709-20.49,22.695-54.698,2.206-76.406
			C1031.134,1655.038,996.925,1654.051,975.217,1674.541z"/>
		<path style="fill:#BBCFF8;" d="M803.548,1813.768c28.832,7.736,125.825-13.381,128.033-21.61
			c2.208-8.229-71.187-75.062-100.02-82.798c-28.831-7.735-58.475,9.366-66.21,38.198
			C757.615,1776.39,774.716,1806.032,803.548,1813.768z"/>
		<path style="fill:#BBCFF8;" d="M1031.295,1836.57c-27.877,10.677-93.965,84.745-90.918,92.701
			c3.047,7.958,101.705,18.927,129.581,8.25c27.877-10.677,41.82-41.932,31.144-69.807
			C1090.426,1839.837,1059.172,1825.893,1031.295,1836.57z"/>
		<path style="fill:#BBCFF8;" d="M815.285,1934.986c27.639,11.279,126.511,2.454,129.73-5.434
			c3.219-7.889-61.245-83.372-88.883-94.652c-27.639-11.279-59.188,1.983-70.467,29.62
			C774.386,1892.158,787.646,1923.706,815.285,1934.986z"/>
		<path style="fill:#BBCFF8;" d="M861.608,1271.643c-6.875,13.067-7.261,62.166-3.531,64.129
			c3.73,1.962,43.977-26.164,50.852-39.231c6.875-13.066,1.856-29.234-11.211-36.109
			C884.65,1253.557,868.484,1258.576,861.608,1271.643z"/>
		<path style="fill:#BBCFF8;" d="M796.863,1345.933c14.279,3.755,62.204-6.925,63.276-11.001
			c1.072-4.076-35.394-36.956-49.674-40.711c-14.279-3.756-28.901,4.775-32.657,19.055
			C774.053,1327.555,782.584,1342.176,796.863,1345.933z"/>
		<path style="fill:#BBCFF8;" d="M891.277,1348.095c-11.258,17.7-17.524,87.176-12.473,90.389
			c5.053,3.213,65.315-31.92,76.573-49.621c11.257-17.702,6.035-41.177-11.668-52.435
			C926.01,1325.17,902.535,1330.394,891.277,1348.095z"/>
		<path style="fill:#BBCFF8;" d="M789.962,1451.906c20.287,5.335,88.373-9.839,89.896-15.629
			c1.524-5.791-50.284-52.502-70.572-57.838c-20.288-5.336-41.06,6.782-46.396,27.07
			C757.554,1425.797,769.674,1446.57,789.962,1451.906z"/>
	</g>
	<g style="clip-path:url(#SVGID_00000122680243303486172990000005684746348320680110_);">
		<path style="fill:#06023B;" d="M1973.996,1300.504v1179.79c-14.22,0.064-28.422,0.081-42.593,0.097
			c-7.232,0-14.448,0-21.663-0.016c-8.291,0-16.581-0.016-24.855-0.048V1300.504H1973.996z"/>
		<path style="fill:#FF6760;" d="M2493.918,1300.504h-620.365V944.354c0-171.308,138.873-310.182,310.183-310.182l0,0
			c171.309,0,310.182,138.874,310.182,310.182V1300.504z"/>
		<polygon style="fill:#FF6760;" points="1697.138,634.172 2202.671,634.172 2202.671,1038.063 1758.883,1038.063 		"/>
		<path style="fill:#E33A3A;" d="M2007.32,1300.504h-620.365V944.354c0-171.308,138.873-310.182,310.182-310.182h0.001
			c171.308,0,310.182,138.874,310.182,310.182V1300.504z"/>
		<path style="fill:#BD0615;" d="M1973.933,1264.645h-553.592V946.828c0-152.87,123.926-276.797,276.796-276.797h0.001
			c152.87,0,276.796,123.926,276.796,276.797V1264.645z"/>
		<rect x="1002.452" y="1264.645" style="fill:#FF6760;" width="1032.121" height="35.86"/>
	</g>
	<g style="clip-path:url(#SVGID_00000122680243303486172990000005684746348320680110_);">
		<path style="fill:#DB7665;" d="M1171.047,570.284c0,0-12.539,57.347-4.543,75.802c7.995,18.455,38.156,68.947,39.423,90.407
			c0.394,6.681-0.163,58.795-10.52,68.612c-7.007,6.642-29.909-6.983-30.129-33.491c-0.384-46.077-20.217-68.049-32.178-84.508
			c-20.402-28.073-30.001-45.481-26.378-30.19c0,0,18.024,45.291,21.178,66.269c0.853,5.668-0.154,51.149-10.808,58.114
			c-5.763,3.769-28.36-1.525-30.808-42.438c-1.609-26.888-20.344-39.864-35.499-54.744c-13.117-12.879-67.656-39.914-67.656-39.914
			l47.9-61.465L1171.047,570.284z"/>
		<path style="fill:#EA8F7D;" d="M1231.366,642.57c0,0,49.301,72.502,60.09,104.776c4.326,12.946,14.507,56.724,5.729,67.105
			c-14.49,17.136-43.1-8.668-51.731-49.023c-8.564-40.042-55.327-60.867-80.795-82.067
			c-63.314-52.708-101.463-84.421-101.463-84.421L1231.366,642.57z"/>
		<path style="fill:#F9A58F;" d="M1348.421,679.803c-10.268-11.871-88.889-88.451-104.431-99.859
			c-38.348-28.197-191.058-102.46-219.606-114.528c-52.649-22.266-182.811,5.841-274.874,11.813
			c-0.563,0.131-48.881,3.767-105.265-0.946c-16.337-1.331-33.06-3.322-48.085-5.65c-33.089,63.16-56.517,121.963-72.564,177.001
			c1.218,21.004,2.695,41.255,4.465,60.818c21.57,0.307,76.023,1.14,97.383,3.655c17.306,2.033,43.563,1.573,66.908,8.225
			l0.02,0.004c0.013,0.007,0.021,0.005,0.03,0.003l0.02,0.005c15.792,4.503,30.224,12.259,39.685,26.247
			c18.452,27.224,73.862,58.712,103.262,73.525c47.722,24.333,87.18,37.578,87.808,37.821
			c35.399,12.778,86.341,42.43,113.165,64.256c7.858,6.567,28.723,23.45,39.242,31.12c6.034,4.436,21.73,15.839,29.137,16.215
			c8.174,0.424,20.252-23.214,21.267-36.963c0.27-3.816-0.496-8.44-1.435-12.113c-6.104-26.517-39.634-56.703-60.296-74.513
			c-19.385-16.888-43.408-33.776-63.36-60.135c-12.017-16.337-18.977-30.72-23.267-52.378c-3.435-17.459-4.129-35.646,12.642-56.569
			c2.017-2.499,7.812-10.89,16.964-20.131c1.877-0.43,39.895-48.248,97.285-22.781c19.136,8.55,42.503,11.012,63.121,14.666
			c0.01-0.002,0.012,0.007,0.022,0.005c21.33,3.785,40.793,8.97,52.826,23.575c13.284,16.111,32.632,29.377,49.909,41.498
			c8.535,5.978,8.167,5.783,8.268,5.805l0.012,0.007c16.183,11.451,32.97,24.021,48.327,40.097
			c37.471,39.18,65.984,28.552,71.06,6.742C1400.799,754.557,1356.332,688.944,1348.421,679.803z"/>
		<g>
			<g>
				<polygon style="fill:#F0F6FC;" points="1790.566,878.121 1623.913,1238.495 1005.197,952.373 1171.85,591.998 1368.664,918.326 
					1419.398,941.788 				"/>
				<g>
					<polygon style="fill:#100259;" points="1510.296,1187.189 1426.849,867.517 1083.524,989.98 1082.341,986.66 1429.289,862.903 
						1513.71,1186.297 					"/>
				</g>
				<g>
					<g>
						<path style="fill:#100259;" d="M1396.221,950.322c-13.641-0.088-26.545-7.398-33.502-19.491l-193.925-337.073l6.113-3.517
							l193.925,337.073c6.652,11.568,19.952,17.789,33.099,15.479l388.027-68.146l1.219,6.949L1403.15,949.74
							C1400.837,950.145,1398.519,950.336,1396.221,950.322z"/>
					</g>
				</g>
				<g>
					<path style="fill:#F0F6FC;" d="M1171.85,591.998l618.716,286.123l-388.025,68.145c-14.652,2.573-29.347-4.299-36.765-17.193
						L1171.85,591.998z"/>
				</g>
			</g>
			<path style="fill:#FF6760;" d="M1380.297,889.591c0.082-12.662,8.706-31.686,21.366-31.604
				c12.661,0.082,33.416,14.008,33.334,26.668c-0.082,12.66-14.844,26.356-27.504,26.274
				C1394.833,910.846,1380.215,902.251,1380.297,889.591z"/>
		</g>
		<polygon style="fill:#FFFFFF;" points="614.743,452.484 750.133,477.348 692.495,720.345 566.467,718.719 		"/>
		<path style="fill:#8989EF;" d="M256.227,328.962c7.368,15.335-38.481,84.968-38.892,174.822
			c-0.461,100.832,44.018,222.241,44.311,225.118c40.862-0.569,330.733-4.965,330.733-4.965l1.032-4.855l-0.003-0.01l0.005-0.019
			l1.869-8.937l-0.004-0.018l-0.01,0.002l-0.002-0.009l48.983-233.79l-0.004-0.018l0.016-0.013l3.702-17.692l3.384-16.111
			L256.227,328.962z"/>
		<path style="fill:#0B0755;" d="M651.336,689.74c-4.673-2.54-10.521-0.811-13.062,3.862c-2.54,4.673-0.81,10.521,3.861,13.062
			c4.674,2.542,10.523,0.812,13.062-3.862C657.739,698.13,656.009,692.282,651.336,689.74z"/>
		<path style="fill:#F9A58F;" d="M908.406,852.504c0.67,0.255,1.344,0.518,2.012,0.77c0.904,0.339,1.806,0.677,2.721,1.014
			c2.709,1.01,5.41,1.981,8.087,2.938c0.65,0.234,1.297,0.46,1.95,0.713c1.948,0.703,3.915,1.45,5.893,2.243
			c0.652,0.253,1.308,0.514,1.974,0.783c0.654,0.252,1.312,0.524,1.972,0.803c2.638,1.082,5.291,2.219,7.932,3.388
			c1.324,0.577,2.642,1.176,3.964,1.784c0.654,0.301,1.32,0.608,1.985,0.906c1.311,0.61,2.625,1.229,3.934,1.868
			c2.795,1.335,5.567,2.702,8.316,4.095c0.815,0.407,1.619,0.817,2.426,1.236c0.967,0.488,1.927,0.987,2.886,1.486
			c1.28,0.675,2.556,1.341,3.815,2.012c4.423,2.361,8.756,4.751,12.947,7.146c0.893,0.506,1.78,1.021,2.664,1.527
			c1.473,0.851,2.935,1.696,4.369,2.547c0.745,0.442,1.489,0.876,2.225,1.321c0.009-0.002,0.009-0.002,0.009-0.002
			c2.649,1.578,5.225,3.136,7.698,4.659c1.052,0.651,2.093,1.294,3.114,1.933c2.051,1.274,4.029,2.528,5.922,3.743
			c0.946,0.608,1.87,1.202,2.773,1.79c3.411,2.219,6.529,4.295,9.288,6.185c0.343,0.238,0.685,0.475,1.026,0.705
			c0.341,0.229,0.67,0.45,0.981,0.675c0.331,0.233,0.641,0.449,0.962,0.673c0.317,0.215,0.627,0.431,0.916,0.644
			c0.56,0.389,1.099,0.773,1.627,1.141c0.596,0.419,1.161,0.827,1.702,1.221c1.28,0.934,2.892,2.174,4.772,3.672
			c0.597,0.467,1.222,0.967,1.879,1.488c1.004,0.815,2.075,1.672,3.197,2.586c0.369,0.308,0.756,0.612,1.136,0.928
			c5.781,4.716,12.83,10.523,20.215,16.407c0.977,0.783,1.975,1.571,2.962,2.352c1.994,1.576,3.998,3.15,5.994,4.687
			c0.677,0.516,1.34,1.026,2.008,1.544c0.663,0.509,1.328,1.019,2,1.517c0.663,0.5,1.316,1.002,1.976,1.494
			c0.986,0.742,1.972,1.476,2.953,2.191c0.487,0.358,0.981,0.715,1.465,1.064c3.402,2.471,6.694,4.766,9.799,6.786
			c0.449,0.281,0.89,0.564,1.328,0.847c0.44,0.282,0.866,0.549,1.29,0.806c0.426,0.266,0.85,0.524,1.264,0.775
			c0.837,0.508,1.659,0.99,2.451,1.432c0.795,0.451,1.564,0.869,2.315,1.262c0.373,0.202,0.743,0.386,1.109,0.561
			c1.364,0.674,2.639,1.245,3.81,1.667c0.19,0.071,0.388,0.141,0.575,0.203c0.19,0.072,0.378,0.134,0.563,0.188
			c1.187,0.36,2.244,0.577,3.167,0.624c0.204,0.011,0.414,0,0.622-0.009c0.207-0.019,0.419-0.058,0.638-0.109
			c0.265-0.061,0.543-0.144,0.814-0.254c0.161-0.057,0.318-0.122,0.474-0.196c0.122-0.057,0.241-0.123,0.37-0.19
			c0.078-0.037,0.155-0.074,0.229-0.13c0.103-0.052,0.206-0.105,0.305-0.176c0.969-0.588,1.954-1.4,2.95-2.408
			c0.15-0.141,0.297-0.298,0.443-0.457c0.293-0.308,0.592-0.635,0.887-0.981c0.144-0.168,0.295-0.347,0.436-0.523
			c0.444-0.535,0.89-1.098,1.327-1.698c0.294-0.394,0.583-0.806,0.87-1.228c0.286-0.421,0.571-0.851,0.854-1.291l0.421-0.673
			c0.28-0.449,0.559-0.907,0.845-1.375c1.164-1.987,2.28-4.144,3.295-6.366c0.179-0.396,0.355-0.792,0.533-1.188
			c0.926-2.104,1.764-4.266,2.471-6.406c0.185-0.532,0.349-1.07,0.506-1.595c0.333-1.056,0.618-2.111,0.872-3.138
			c0.065-0.255,0.129-0.52,0.185-0.773c0.355-1.541,0.626-3.034,0.789-4.454c0.049-0.453,0.098-0.906,0.131-1.344
			c0.032-0.45,0.054-0.897,0.06-1.33c0.008-0.213,0.008-0.423,0.007-0.635c-0.002-0.422-0.019-0.831-0.043-1.228
			c-0.202-2.958-0.694-5.927-1.459-8.92c-0.057-0.246-0.123-0.49-0.188-0.734c-0.082-0.316-0.174-0.631-0.266-0.946l-0.013-0.054
			c-0.102-0.361-0.214-0.719-0.325-1.078c-0.097-0.295-0.184-0.591-0.292-0.893c-0.551-1.677-1.188-3.364-1.913-5.051
			c-0.157-0.396-0.335-0.787-0.511-1.178c-0.184-0.418-0.377-0.843-0.578-1.259c-0.194-0.426-0.395-0.84-0.608-1.262
			c-1.034-2.114-2.206-4.244-3.505-6.384c-0.253-0.432-0.517-0.869-0.789-1.296c-0.535-0.866-1.091-1.735-1.676-2.609
			c-1.919-2.871-4.052-5.798-6.406-8.768c-0.316-0.408-0.637-0.805-0.961-1.21c-0.983-1.223-1.995-2.449-3.056-3.683
			c-0.398-0.475-0.804-0.949-1.221-1.419c-0.917-1.065-1.876-2.141-2.854-3.221c-0.489-0.54-0.987-1.078-1.487-1.626
			c-0.501-0.547-1.01-1.091-1.53-1.643c-2.331-2.488-4.803-5.01-7.403-7.589c-0.047-0.036-0.096-0.083-0.135-0.122
			c-5.208-5.147-10.95-10.487-17.226-16.059c-1.265-1.119-2.545-2.255-3.863-3.391c-1.134-1.007-2.306-2.013-3.493-3.036
			c-0.671-0.585-1.353-1.166-2.036-1.758c-5.557-4.749-11.453-9.67-17.708-14.776c-0.734-0.599-1.455-1.191-2.168-1.786
			c-0.711-0.585-1.413-1.172-2.104-1.752c-0.701-0.587-1.391-1.168-2.061-1.743c-0.682-0.581-1.35-1.148-2.011-1.726
			c-1.999-1.719-3.926-3.415-5.781-5.091c-0.617-0.558-1.225-1.11-1.823-1.664c-3.026-2.758-5.857-5.467-8.521-8.108
			c-0.534-0.529-1.061-1.061-1.574-1.586c-0.462-0.46-0.903-0.916-1.343-1.37c-0.35-0.352-0.703-0.713-1.034-1.068
			c-4.544-4.723-8.537-9.266-12.058-13.669c-0.512-0.641-1.016-1.282-1.516-1.915c-0.067-0.081-0.135-0.17-0.193-0.254
			c-0.481-0.63-0.96-1.248-1.43-1.869c-0.181-0.246-0.36-0.484-0.542-0.73c-0.937-1.272-1.842-2.534-2.715-3.781
			c-0.517-0.745-1.02-1.474-1.507-2.207c-0.429-0.651-0.845-1.293-1.262-1.938c-0.088-0.132-0.174-0.257-0.253-0.392
			c-0.316-0.494-0.62-0.98-0.924-1.467c-0.384-0.623-0.757-1.237-1.116-1.846c-0.193-0.321-0.362-0.634-0.549-0.953l-89.374,7.045
			L908.406,852.504z"/>
	</g>
</g>
</svg>
